<?xml version="1.0" encoding="UTF-8" standalone="no" ?>
<!DOCTYPE svg PUBLIC "-//W3C//DTD SVG 1.1//EN" "http://www.w3.org/Graphics/SVG/1.1/DTD/svg11.dtd">
<svg xmlns="http://www.w3.org/2000/svg" xmlns:xlink="http://www.w3.org/1999/xlink" version="1.1" width="200" height="200" viewBox="0 0 200 200" xml:space="preserve">
<desc>Created with Fabric.js 5.2.4</desc>
<defs>
</defs>
<rect x="0" y="0" width="100%" height="100%" fill="transparent"></rect>
<g transform="matrix(1 0 0 1 100 100)" id="2ef48044-42b2-4a2e-a3bf-0d30b6ac552c"  >
<rect style="stroke: none; stroke-width: 1; stroke-dasharray: none; stroke-linecap: butt; stroke-dashoffset: 0; stroke-linejoin: miter; stroke-miterlimit: 4; fill: rgb(255,255,255); fill-rule: nonzero; opacity: 1; visibility: hidden;" vector-effect="non-scaling-stroke"  x="-100" y="-100" rx="0" ry="0" width="200" height="200" />
</g>
<g transform="matrix(0 0 0 0 0 0)" id="cea4c500-8a54-4444-b39d-ce528a289578"  >
</g>
<g transform="matrix(6.14 0 0 6.14 100 100)"  >
<path style="stroke: rgb(0,0,0); stroke-width: 0; stroke-dasharray: none; stroke-linecap: butt; stroke-dashoffset: 0; stroke-linejoin: miter; stroke-miterlimit: 4; fill: rgb(255,255,255); fill-rule: nonzero; opacity: 1;" vector-effect="non-scaling-stroke"  transform=" translate(-16, -16)" d="M 4.172 1.787 C 2.776 2.6149999999999998 0.027000000000000135 5.771 0 6.599 L 0 7.974 C 0 9.709 1.625 11.241 3.099 11.241 C 4.87 11.241 6.35 9.772 6.35 8.027999999999999 C 6.35 9.771999999999998 7.771 11.241 9.547 11.241 C 11.318000000000001 11.241 12.698 9.772 12.698 8.027999999999999 C 12.698 9.771999999999998 14.214 11.241 15.985 11.241 L 16.017 11.241 C 17.793 11.241 19.308 9.772 19.308 8.027999999999999 C 19.308 9.771999999999998 20.689 11.241 22.46 11.241 C 24.231 11.241 25.657 9.772 25.657 8.027999999999999 C 25.657 9.771999999999998 27.132 11.241 28.902 11.241 C 30.381 11.241 32.006 9.709 32.006 7.974 L 32.006 6.599 C 31.974 5.771 29.23 2.615 27.829 1.787 C 23.490000000000002 1.631 20.485 1.6039999999999999 16.006 1.6039999999999999 C 11.522 1.6089999999999998 5.413 1.6769999999999998 4.178000000000001 1.787 z M 12.677 10.421 C 12.494 10.729 12.292 10.988999999999999 12.052 11.218 L 12.052 11.223 C 11.379999999999999 11.874 10.463999999999999 12.280000000000001 9.453 12.280000000000001 C 8.437 12.280000000000001 7.520999999999999 11.873000000000001 6.853999999999999 11.217 C 6.608999999999999 10.982000000000001 6.425999999999999 10.728 6.254 10.43 C 6.087 10.727 5.853999999999999 10.982 5.609 11.217 C 4.937 11.873000000000001 4.021 12.280000000000001 3.01 12.280000000000001 C 3.01 12.280000000000001 3.01 12.280000000000001 3.005 12.280000000000001 C 2.885 12.280000000000001 2.76 12.244000000000002 2.6559999999999997 12.207 C 2.5159999999999996 13.692 2.453 15.108 2.4319999999999995 16.144000000000002 L 2.4319999999999995 16.149 C 2.4269999999999996 16.676000000000002 2.4269999999999996 17.102 2.4209999999999994 17.701 C 2.4529999999999994 20.816000000000003 2.1139999999999994 27.79 3.7969999999999993 29.504 C 6.401 30.108 11.193 30.384 15.993999999999998 30.389000000000003 L 15.998999999999999 30.389000000000003 C 20.805999999999997 30.384000000000004 25.592 30.108000000000004 28.195999999999998 29.504 C 29.878999999999998 27.791 29.54 20.816000000000003 29.572 17.701 C 29.567 17.102 29.567 16.676000000000002 29.561 16.149 L 29.561 16.144000000000002 C 29.54 15.108000000000002 29.482 13.692000000000002 29.337 12.207000000000003 C 29.238 12.244000000000003 29.108 12.280000000000003 28.988 12.280000000000003 C 28.988 12.280000000000003 28.983 12.280000000000003 28.983 12.280000000000003 C 27.972 12.280000000000003 27.056 11.873000000000003 26.384 11.217000000000002 L 26.389 11.217000000000002 C 26.144 10.982000000000003 25.91 10.728000000000002 25.744 10.430000000000001 L 25.739 10.430000000000001 C 25.572 10.727000000000002 25.384 10.982000000000001 25.144000000000002 11.217000000000002 C 24.477 11.873000000000003 23.561000000000003 12.280000000000003 22.545 12.280000000000003 C 21.534000000000002 12.280000000000003 20.618000000000002 11.873000000000003 19.946 11.217000000000002 C 19.706000000000003 10.988000000000003 19.503 10.722000000000003 19.331000000000003 10.430000000000001 L 19.320000000000004 10.414000000000001 C 19.148000000000003 10.722000000000001 18.940000000000005 10.987000000000002 18.705000000000005 11.217000000000002 C 18.033000000000005 11.873000000000003 17.117000000000004 12.280000000000003 16.106000000000005 12.280000000000003 C 16.106000000000005 12.280000000000003 16.101000000000006 12.280000000000003 16.101000000000006 12.280000000000003 C 16.070000000000007 12.280000000000003 16.033000000000005 12.280000000000003 15.997000000000007 12.275000000000002 C 15.961000000000007 12.280000000000003 15.924000000000007 12.280000000000003 15.888000000000007 12.280000000000003 C 15.888000000000007 12.280000000000003 15.888000000000007 12.280000000000003 15.883000000000006 12.280000000000003 C 14.872000000000007 12.280000000000003 13.956000000000007 11.873000000000003 13.290000000000006 11.217000000000002 C 13.050000000000006 10.988000000000003 12.847000000000007 10.722000000000003 12.681000000000006 10.430000000000001 L 12.670000000000007 10.414000000000001 z M 10.005 13.875 C 11.062000000000001 13.88 12 13.875 13.166 15.146 C 14.082 15.053 15.041 15.006 15.999 15.006 C 16.957 15.006 17.916 15.053 18.832 15.146 C 19.999000000000002 13.875 20.936 13.875 21.993000000000002 13.875 L 21.998 13.875 C 22.498 13.875 24.498 13.875 25.889000000000003 17.787 L 27.384000000000004 23.156 C 28.493000000000002 27.151 27.029000000000003 27.250999999999998 25.207000000000004 27.250999999999998 C 22.499000000000002 27.150999999999996 20.999000000000002 25.182999999999996 20.999000000000002 23.214 C 19.499000000000002 23.465 17.748 23.584999999999997 15.999000000000002 23.584999999999997 C 14.250000000000004 23.584999999999997 12.499000000000002 23.464999999999996 11.004000000000001 23.214 C 11.004000000000001 25.183 9.504000000000001 27.151 6.796000000000001 27.250999999999998 C 4.968000000000001 27.246 3.5040000000000013 27.150999999999996 4.613000000000001 23.156 L 6.108000000000001 17.787 C 7.504000000000001 13.875 9.504000000000001 13.875 10.004000000000001 13.875 z M 16 16.953 C 15.995 16.953 13.151 19.573 12.636 20.5 L 14.5 20.427 L 14.5 22.052 C 14.5 22.131 15.251 22.099 16 22.063 C 16.749 22.099 17.495 22.131 17.495 22.052 L 17.495 20.427 L 19.364 20.5 C 18.849 19.573 16 16.953 16 16.953 z" stroke-linecap="round" />
</g>
</svg>